# xmcd
#
# Track frame offsets:
#	150
#	12160
#	25652
#	38735
#	50347
#	62370
#	75735
#	87930
#	105087
#	117777
#	130967
#	147885
#	163385
#	176225
#	195092
#	208055
#	220467
#	233435
#	243515
#	265085
#
# Disc length: 3696 seconds
# Revision: 0
# Processed by: cddbd v1.5.2PL0 Copyright (c) Steve Scherf et al.
# Submitted via: dBpowerAMP V12.0
#
DISCID=040e6e14
DTITLE=Various Artist - Simply The Best Classic Soul (1 of 2)
DYEAR=1997
DGENRE=Pop/Rock
TTITLE0=Sam and Dave - Soul Man
TTITLE1=Smokey Robinson and The Miracles - Tears Of A Clown
TTITLE2=Otis Redding - My Girl
TTITLE3=Temptations, The - Ain't Too Proud To Beg
TTITLE4=Supremes, The - You Keep Me Hanging On
TTITLE5=Four Tops - Reach Out I'll Be There
TTITLE6=Drifters, The - Under The Boardwalk
TTITLE7=Otis Redding - Try A Little Tenderness
TTITLE8=James Brown - It's A Man's Man's Man's World
TTITLE9=Jimmy Ruffin - What Becomes Of The Broken Hearted
TTITLE10=Jackson Five, The - I'll Be There
TTITLE11=Harold Melvin - If You Don't Know Me by Now
TTITLE12=Al Green - Tired of Being Alone
TTITLE13=Detroit Spinners, The - Could It Be I'm Falling In Love
TTITLE14=Dionne Warwick - Walk On By
TTITLE15=Aretha Franklin - (You Make Me Feel Like) A Natural Woman
TTITLE16=Percy Sledge - When A Man Loves A Woman
TTITLE17=Marvin Gaye and Tammi Terrell - Ain't Nothing Like The Real Thing
TTITLE18=Al Green - Let's Stay Together
TTITLE19=Otis Redding - (Sittin' On) The Dock Of The Bay
EXTD=
EXTT0=
EXTT1=
EXTT2=
EXTT3=
EXTT4=
EXTT5=
EXTT6=
EXTT7=
EXTT8=
EXTT9=
EXTT10=
EXTT11=
EXTT12=
EXTT13=
EXTT14=
EXTT15=
EXTT16=
EXTT17=
EXTT18=
EXTT19=
PLAYORDER=
